#N canvas 714 206 500 300 10;
#X floatatom 128 24 0 0 0 0 - - - 0;
#X obj 50 175 netsend -u;
#X msg 233 128 disconnect;
#X msg 309 44 connect 0.0.0.0 8000;
#X msg 43 82 send /puredata/color "data" \$1;
#X obj 208 222 packOSC;
#X connect 0 0 4 0;
#X connect 2 0 1 0;
#X connect 3 0 1 0;
#X connect 4 0 1 0;
